<svg width="153" height="22" viewBox="0 0 153 22" fill="none" xmlns="http://www.w3.org/2000/svg">
<path d="M0 21.6872V19.0806L2.25771 18.6337V3.06838L0 2.62153V0H10.0505C12.4878 0 14.4008 0.575942 15.7894 1.72783C17.178 2.86978 17.8723 4.44866 17.8723 6.46446C17.8723 7.74543 17.5519 8.89235 16.911 9.90521C16.2798 10.9181 15.4107 11.7075 14.3037 12.2735L16.9984 18.6486L18.8046 19.0806V21.6872H13.6482L10.3855 13.1225H6.51095V18.6337L8.78323 19.0806V21.6872H0ZM6.51095 9.77116H9.97763C12.415 9.77116 13.6337 8.73347 13.6337 6.65809C13.6337 5.65516 13.3326 4.85579 12.7306 4.25999C12.1285 3.65425 11.2351 3.35139 10.0505 3.35139H6.51095V9.77116Z" fill="#222233"/>
<path d="M28.1558 22C26.641 22 25.3204 21.6624 24.1939 20.9871C23.0772 20.302 22.2081 19.3636 21.5866 18.172C20.9749 16.9804 20.669 15.62 20.669 14.0907V13.4949C20.669 11.8962 20.9603 10.4812 21.5429 9.24983C22.1256 8.00858 22.9461 7.03543 24.0046 6.3304C25.0727 5.61544 26.3303 5.26292 27.7771 5.27285C29.9037 5.27285 31.5303 5.91334 32.6567 7.19431C33.7831 8.46536 34.3463 10.2528 34.3463 12.5565V14.9248H25.0824L25.0533 15.0142C25.131 16.0767 25.4757 16.9506 26.0875 17.6357C26.6993 18.3209 27.5684 18.6635 28.6948 18.6635C29.4716 18.6635 30.1951 18.5642 30.8651 18.3656C31.5448 18.1571 32.2052 17.8542 32.8461 17.457L33.9968 20.1381C33.3462 20.6743 32.5256 21.1212 31.5351 21.4787C30.5544 21.8262 29.4279 22 28.1558 22ZM25.1116 12.0501H30.3699V11.6628C30.3699 10.6897 30.1708 9.92011 29.7727 9.3541C29.3842 8.77815 28.7433 8.49018 27.85 8.49018C26.9954 8.49018 26.3448 8.82284 25.8981 9.48815C25.4514 10.1435 25.1747 10.9727 25.0679 11.9756L25.1116 12.0501Z" fill="#222233"/>
<path d="M43.0713 22C41.8963 22 40.799 21.8858 39.7794 21.6574C38.7695 21.429 37.7985 21.1013 36.8662 20.6743L36.8225 16.1165H39.7794L40.3475 18.4401C40.6776 18.6089 41.0369 18.7429 41.4254 18.8422C41.8235 18.9415 42.275 18.9912 42.78 18.9912C43.7316 18.9912 44.4017 18.8323 44.7901 18.5146C45.1785 18.1968 45.3727 17.7996 45.3727 17.323C45.3727 16.8761 45.1639 16.4839 44.7464 16.1462C44.3288 15.7987 43.5083 15.4958 42.2847 15.2376C40.4106 14.8404 39.0317 14.2248 38.148 13.3907C37.2741 12.5565 36.8371 11.4891 36.8371 10.1882C36.8371 9.30445 37.0556 8.49018 37.4926 7.74543C37.9393 7.00068 38.6141 6.40984 39.5172 5.97292C40.43 5.52607 41.5953 5.30264 43.013 5.30264C44.1977 5.30264 45.2805 5.4218 46.2612 5.66012C47.2517 5.88851 48.082 6.19138 48.752 6.56872L48.7957 10.9777H45.8534L45.4018 8.86256C44.8386 8.46536 44.1298 8.26676 43.2752 8.26676C42.5372 8.26676 41.9643 8.42564 41.5565 8.7434C41.1583 9.05123 40.9593 9.44347 40.9593 9.92011C40.9593 10.3372 41.134 10.7145 41.4836 11.0521C41.8429 11.3798 42.6246 11.6827 43.8287 11.9607C45.7806 12.4175 47.2032 13.0282 48.0965 13.7928C48.9899 14.5475 49.4366 15.61 49.4366 16.9804C49.4366 18.4798 48.9025 19.6913 47.8343 20.6148C46.7759 21.5383 45.1882 22 43.0713 22Z" fill="#222233"/>
<path d="M58.0596 22C56.3894 22 55.0833 21.4638 54.1414 20.3913C53.1994 19.309 52.7285 17.6308 52.7285 15.3568V8.63913L50.9951 8.19228V5.57075H56.9817V15.3866C56.9817 16.5385 57.1759 17.3676 57.5644 17.8741C57.9625 18.3706 58.5597 18.6188 59.356 18.6188C60.628 18.6188 61.5845 18.1322 62.2254 17.1591V8.63913L60.3464 8.19228V5.57075H66.4787V18.6337L68.3722 19.0806V21.6872H62.7498L62.4585 19.6466C61.4195 21.2155 59.9532 22 58.0596 22Z" fill="#222233"/>
<path d="M69.7997 21.6872V19.0806L71.8535 18.6337V8.63913L69.5812 8.19228V5.57075H75.8008L75.9756 7.70074C76.4806 6.9262 77.1118 6.3304 77.8692 5.91334C78.6363 5.48635 79.52 5.27285 80.5202 5.27285C81.5301 5.27285 82.3943 5.50124 83.1129 5.95802C83.8315 6.4148 84.3753 7.10494 84.7443 8.02844C85.2298 7.16452 85.861 6.48928 86.6378 6.00271C87.4147 5.51614 88.3275 5.27285 89.3762 5.27285C90.9299 5.27285 92.1535 5.81404 93.0468 6.89641C93.9499 7.97879 94.4015 9.62717 94.4015 11.8416V18.6337L96.4553 19.0806V21.6872H88.3129V19.0806L90.1482 18.6337V11.8267C90.1482 10.645 89.954 9.82081 89.5656 9.3541C89.1869 8.88738 88.6334 8.65403 87.9051 8.65403C87.2448 8.65403 86.6864 8.84766 86.23 9.23494C85.7736 9.61228 85.4435 10.1137 85.2395 10.7393V18.6337L86.9583 19.0806V21.6872H79.2821V19.0806L81.0009 18.6337V11.8267C81.0009 10.6649 80.8066 9.84563 80.4182 9.36899C80.0395 8.89235 79.4763 8.65403 78.7286 8.65403C77.5536 8.65403 76.6748 9.13564 76.0922 10.0988V18.6337L77.9275 19.0806V21.6872H69.7997Z" fill="#222233"/>
<path d="M103.17 22C101.607 22 100.364 21.573 99.4413 20.719C98.5188 19.8551 98.0575 18.6834 98.0575 17.2038C98.0575 15.6944 98.6547 14.4631 99.8491 13.5098C101.053 12.5565 102.821 12.0799 105.151 12.0799H107.234V10.8883C107.234 10.1137 107.011 9.48815 106.564 9.01151C106.127 8.52494 105.467 8.28165 104.583 8.28165C104.127 8.28165 103.714 8.34123 103.345 8.46039C102.986 8.56962 102.66 8.7285 102.369 8.93703L102.034 11.067H98.9752L98.9169 6.88152C99.7423 6.40487 100.636 6.0176 101.597 5.7197C102.558 5.4218 103.631 5.27285 104.816 5.27285C106.875 5.27285 108.501 5.76439 109.696 6.74746C110.89 7.73054 111.487 9.12571 111.487 10.933V17.5762C111.487 17.7946 111.487 18.0081 111.487 18.2167C111.497 18.4252 111.516 18.6337 111.546 18.8422L113.191 19.0806V21.6872H107.919C107.812 21.4092 107.705 21.1113 107.598 20.7935C107.491 20.4757 107.414 20.158 107.365 19.8402C106.86 20.4956 106.263 21.0219 105.573 21.4191C104.894 21.8064 104.093 22 103.17 22ZM104.306 18.7827C104.899 18.7827 105.457 18.6486 105.981 18.3805C106.515 18.1025 106.933 17.74 107.234 17.2932V14.7461H105.137C104.204 14.7461 103.495 14.9646 103.01 15.4015C102.534 15.8384 102.296 16.3647 102.296 16.9804C102.296 17.5563 102.471 18.0032 102.821 18.3209C103.18 18.6288 103.675 18.7827 104.306 18.7827Z" fill="#222233"/>
<path d="M120.372 22C118.906 22 117.775 21.5879 116.979 20.7637C116.192 19.9395 115.799 18.6337 115.799 16.8463V8.62424H113.628V5.57075H115.799V1.62356H120.037V5.57075H122.936V8.62424H120.037V16.8314C120.037 17.457 120.164 17.9039 120.416 18.172C120.678 18.4401 121.033 18.5741 121.479 18.5741C121.712 18.5741 121.965 18.5592 122.237 18.5295C122.509 18.4897 122.742 18.45 122.936 18.4103L123.3 21.5531C122.873 21.6822 122.402 21.7865 121.887 21.8659C121.373 21.9553 120.868 22 120.372 22Z" fill="#222233"/>
<path d="M132.04 22C130.476 22 129.136 21.6524 128.02 20.9573C126.913 20.2622 126.063 19.299 125.47 18.0677C124.878 16.8265 124.582 15.4015 124.582 13.7928V13.48C124.582 11.8813 124.878 10.4663 125.47 9.23494C126.063 7.99368 126.913 7.0255 128.02 6.3304C129.136 5.62537 130.467 5.27285 132.011 5.27285C133.564 5.27285 134.895 5.6204 136.002 6.3155C137.118 7.01061 137.973 7.97879 138.565 9.22004C139.158 10.4514 139.454 11.8714 139.454 13.48V13.7928C139.454 15.4015 139.158 16.8265 138.565 18.0677C137.973 19.299 137.123 20.2622 136.016 20.9573C134.909 21.6524 133.584 22 132.04 22ZM132.04 18.6635C133.137 18.6635 133.938 18.2167 134.443 17.323C134.958 16.4292 135.215 15.2525 135.215 13.7928V13.48C135.215 12.0501 134.958 10.8833 134.443 9.97969C133.928 9.07606 133.118 8.62424 132.011 8.62424C130.904 8.62424 130.098 9.07606 129.593 9.97969C129.088 10.8833 128.835 12.0501 128.835 13.48V13.7928C128.835 15.2625 129.088 16.4441 129.593 17.3378C130.098 18.2216 130.913 18.6635 132.04 18.6635Z" fill="#222233"/>
<path d="M141.682 21.6872V19.0806L143.722 18.6337V8.63913L141.464 8.19228V5.57075H147.683L147.844 7.56669L147.873 7.92417C148.65 6.15662 149.815 5.27285 151.369 5.27285C151.621 5.27285 151.893 5.29271 152.184 5.33243C152.485 5.37215 152.757 5.43173 153 5.51117L152.548 9.51794L150.436 9.39878C149.834 9.36899 149.344 9.47326 148.965 9.71158C148.596 9.9499 148.266 10.2925 147.975 10.7393V18.6337L150.014 19.0806V21.6872H141.682Z" fill="#222233"/>
</svg>
